<svg width="720" height="720" viewBox="0 0 720 720" fill="none" xmlns="http://www.w3.org/2000/svg">
<g clip-path="url(#clip0_1887_539)">
<path d="M720.001 360C720.125 444.979 690.066 527.24 635.183 592.118C633.19 594.485 631.16 596.818 629.092 599.131C604.758 626.498 576.412 650.014 545.022 668.876C537.822 673.199 530.464 677.272 522.949 681.096C522.189 681.482 521.417 681.868 520.657 682.242C519.748 682.703 518.826 683.151 517.904 683.6C498.886 692.91 479.076 700.507 458.71 706.3C456.592 706.9 454.47 707.481 452.345 708.044C425.553 715.133 398.032 719.099 370.33 719.865C368.885 719.902 367.465 719.927 366.095 719.952C365.609 719.965 365.136 719.977 364.662 719.977C363.105 719.989 361.562 720.002 360.003 720.002C330.809 720.024 301.721 716.498 273.379 709.502C270.539 708.804 267.711 708.069 264.896 707.297C250.067 703.249 235.516 698.243 221.335 692.312C213.861 689.198 206.519 685.839 199.311 682.234C197.679 681.412 196.047 680.59 194.44 679.743C193.755 679.407 193.082 679.043 192.41 678.697C153.991 658.419 119.538 631.387 90.7006 598.897C88.7076 596.667 86.7516 594.397 84.8206 592.121C53.0469 554.449 29.3458 510.654 15.1853 463.45C1.02469 416.245 -3.29381 366.636 2.49717 317.695C8.28815 268.754 24.0653 221.523 48.8515 178.926C73.6378 136.33 106.905 99.2767 146.594 70.06C148.637 68.553 150.694 67.06 152.773 65.6L154.006 64.741C190.558 39.1374 231.584 20.61 274.961 10.118C277.427 9.50803 279.894 8.93503 282.385 8.39903C329.368 -1.87694 377.924 -2.72669 425.239 5.89903C427.718 6.36003 430.197 6.83302 432.663 7.34402C475.651 16.1615 516.652 32.8109 553.618 56.461C554.44 56.984 555.262 57.507 556.084 58.055C557.741 59.126 559.397 60.222 561.029 61.331C609.996 94.2515 650.11 138.715 677.834 190.801C705.558 242.888 720.039 300.995 720.001 360Z" fill="#F2F2F2"/>
<path d="M269.066 546.239L154.003 556.454L152.771 556.566V65.597L154.003 64.7381C177.984 47.9649 203.924 34.1854 231.247 23.7061L237.13 104.798L237.667 112.222L243.484 192.643L245.277 217.382L268.854 543.375L269.066 546.239Z" fill="#D6D6E3"/>
<path d="M553.616 56.453C554.438 56.976 555.26 57.499 556.082 58.047V556.566L553.616 556.342L439.799 546.242L440.011 543.377L463.592 217.385L465.386 192.646L471.203 112.225L471.739 104.796L477.905 19.754C504.496 28.972 529.908 41.2902 553.617 56.454L553.616 56.453Z" fill="#D6D6E3"/>
<path d="M553.611 56.4541V563.367C553.611 573.096 546.911 581.006 538.663 581.006H168.951C162.125 581.006 156.332 575.575 154.576 568.163C154.192 566.592 154 564.98 154.003 563.363V64.7341L152.77 65.5931C150.69 67.0501 148.634 68.5451 146.591 70.0531V563.367C146.481 570.757 149.241 577.902 154.291 583.298C156.939 586.07 160.288 588.074 163.982 589.098C165.602 589.539 167.273 589.761 168.952 589.758H538.667C540.35 589.76 542.026 589.538 543.65 589.098C553.59 586.42 561.027 575.906 561.027 563.362V61.3251C559.395 60.2161 557.738 59.1251 556.082 58.0491C555.259 57.5001 554.437 56.9771 553.611 56.4541Z" fill="#D6D6E3"/>
<path d="M557.325 104.803H150.299V112.226H557.325V104.803Z" fill="#D6D6E3"/>
<path d="M274.959 10.115C277.425 9.50499 279.892 8.932 282.383 8.396V209.956H274.959V10.115Z" fill="#D6D6E3"/>
<path d="M425.236 5.89203C427.715 6.35303 430.194 6.82604 432.66 7.33704V209.962H425.236V5.89203Z" fill="#D6D6E3"/>
<path d="M603.716 543.374H116.272C107.412 543.374 98.914 546.894 92.6486 553.159C86.3832 559.425 82.8633 567.922 82.8633 576.783C82.8633 585.644 86.3832 594.141 92.6486 600.407C98.914 606.672 107.412 610.192 116.272 610.192H603.716C608.462 610.193 613.153 609.181 617.476 607.223C621.799 605.265 625.655 602.407 628.784 598.839C630.199 597.229 631.457 595.488 632.541 593.639C633.382 592.22 634.111 590.737 634.721 589.205C636.756 584.137 637.517 578.647 636.936 573.217C636.356 567.787 634.452 562.581 631.392 558.058C628.333 553.534 624.21 549.831 619.385 547.271C614.561 544.711 609.183 543.374 603.721 543.377L603.716 543.374Z" fill="#D6D6E3"/>
<path d="M557.324 192.642H152.772V217.385H557.324V192.642Z" fill="#D6D6E3"/>
<path d="M351.337 185.219H358.76C360.547 185.219 362.317 185.571 363.968 186.255C365.619 186.939 367.119 187.942 368.383 189.205C369.647 190.469 370.649 191.97 371.333 193.621C372.017 195.272 372.369 197.042 372.369 198.829H337.728C337.728 195.22 339.161 191.758 341.714 189.206C344.266 186.654 347.727 185.219 351.337 185.219Z" fill="#D6D6E3"/>
<path d="M635.181 592.117C624.36 604.939 612.655 616.988 600.153 628.177H119.847C107.345 616.988 95.6408 604.939 84.8193 592.117H635.181Z" fill="#3F3D56"/>
<path d="M400.21 467.214H319.341C318.905 467.21 318.472 467.277 318.058 467.414C317.181 467.686 316.413 468.232 315.869 468.972C315.324 469.712 315.03 470.606 315.031 471.525V599.28H404.531V471.524C404.531 470.957 404.418 470.396 404.201 469.873C403.983 469.349 403.665 468.874 403.263 468.473C402.862 468.073 402.386 467.756 401.862 467.54C401.338 467.324 400.777 467.213 400.21 467.214ZM369.604 530.244C369.607 532.316 368.924 534.331 367.661 535.974C366.456 537.568 364.781 538.745 362.872 539.337C360.963 539.928 358.917 539.906 357.021 539.274C355.125 538.641 353.476 537.429 352.305 535.809C351.135 534.189 350.502 532.243 350.496 530.244V515.421C350.496 512.887 351.503 510.457 353.295 508.665C355.086 506.873 357.517 505.867 360.051 505.867C362.585 505.867 365.015 506.873 366.807 508.665C368.599 510.457 369.605 512.887 369.605 515.421L369.604 530.244Z" fill="#2F2E41"/>
<path d="M314.758 595.194V607.514C314.758 608.152 315.01 608.764 315.459 609.217C315.909 609.67 316.52 609.927 317.158 609.931H402.399C403.036 609.925 403.646 609.667 404.095 609.215C404.544 608.763 404.797 608.152 404.799 607.514V595.194H314.758Z" fill="#3F3D56"/>
<path d="M534.12 267.844H188.446C185.476 267.848 182.628 269.029 180.527 271.128C178.426 273.227 177.242 276.074 177.235 279.044V512.307C177.238 515.28 178.42 518.13 180.522 520.232C182.624 522.334 185.474 523.516 188.446 523.518H534.12C537.093 523.516 539.943 522.334 542.045 520.232C544.147 518.13 545.329 515.28 545.331 512.307V279.043C545.324 276.073 544.141 273.227 542.039 271.127C539.938 269.028 537.09 267.848 534.12 267.844Z" fill="#3F3D56"/>
<path d="M531.23 275.941H191.324C189.734 275.943 188.21 276.576 187.087 277.701C185.963 278.826 185.332 280.351 185.332 281.941V509.43C185.334 511.018 185.967 512.541 187.09 513.664C188.213 514.787 189.736 515.419 191.324 515.421H531.23C532.819 515.419 534.341 514.787 535.465 513.664C536.588 512.54 537.22 511.018 537.222 509.429V281.945C537.222 280.355 536.591 278.831 535.468 277.706C534.345 276.581 532.821 275.947 531.231 275.945L531.23 275.941Z" fill="#FFB646"/>
<path d="M468.672 609.728L465.533 594.817C465.402 594.21 465.122 593.644 464.717 593.173C464.313 592.701 463.797 592.338 463.216 592.117C462.796 591.952 462.348 591.867 461.896 591.868H265.939C265.487 591.867 265.04 591.952 264.619 592.117C264.038 592.338 263.522 592.701 263.118 593.173C262.713 593.644 262.433 594.21 262.302 594.817L259.163 609.728C259.05 610.269 259.058 610.829 259.188 611.366C259.319 611.904 259.567 612.406 259.915 612.835C260.263 613.264 260.703 613.611 261.202 613.849C261.701 614.087 262.247 614.211 262.8 614.212H465.022C465.577 614.215 466.125 614.092 466.626 613.852C467.126 613.613 467.566 613.263 467.912 612.829C468.261 612.401 468.51 611.901 468.642 611.365C468.773 610.829 468.784 610.269 468.672 609.728Z" fill="#2F2E41"/>
<path d="M273.117 594.554H267.865C267.595 594.554 267.377 594.773 267.377 595.042V597.803C267.377 598.073 267.595 598.291 267.865 598.291H273.117C273.386 598.291 273.605 598.073 273.605 597.803V595.042C273.605 594.773 273.386 594.554 273.117 594.554Z" fill="#3F3D56"/>
<path d="M285.572 594.554H280.32C280.051 594.554 279.832 594.773 279.832 595.042V597.803C279.832 598.073 280.051 598.291 280.32 598.291H285.572C285.842 598.291 286.06 598.073 286.06 597.803V595.042C286.06 594.773 285.842 594.554 285.572 594.554Z" fill="#3F3D56"/>
<path d="M298.029 594.554H292.777C292.508 594.554 292.289 594.773 292.289 595.042V597.803C292.289 598.073 292.508 598.291 292.777 598.291H298.029C298.299 598.291 298.517 598.073 298.517 597.803V595.042C298.517 594.773 298.299 594.554 298.029 594.554Z" fill="#3F3D56"/>
<path d="M310.486 594.554H305.234C304.965 594.554 304.746 594.773 304.746 595.042V597.803C304.746 598.073 304.965 598.291 305.234 598.291H310.486C310.756 598.291 310.974 598.073 310.974 597.803V595.042C310.974 594.773 310.756 594.554 310.486 594.554Z" fill="#3F3D56"/>
<path d="M322.942 594.554H317.69C317.421 594.554 317.202 594.773 317.202 595.042V597.803C317.202 598.073 317.421 598.291 317.69 598.291H322.942C323.212 598.291 323.43 598.073 323.43 597.803V595.042C323.43 594.773 323.212 594.554 322.942 594.554Z" fill="#3F3D56"/>
<path d="M335.399 594.554H330.147C329.878 594.554 329.659 594.773 329.659 595.042V597.803C329.659 598.073 329.878 598.291 330.147 598.291H335.399C335.669 598.291 335.887 598.073 335.887 597.803V595.042C335.887 594.773 335.669 594.554 335.399 594.554Z" fill="#3F3D56"/>
<path d="M347.856 594.554H342.604C342.335 594.554 342.116 594.773 342.116 595.042V597.803C342.116 598.073 342.335 598.291 342.604 598.291H347.856C348.126 598.291 348.344 598.073 348.344 597.803V595.042C348.344 594.773 348.126 594.554 347.856 594.554Z" fill="#3F3D56"/>
<path d="M360.313 594.554H355.061C354.792 594.554 354.573 594.773 354.573 595.042V597.803C354.573 598.073 354.792 598.291 355.061 598.291H360.313C360.583 598.291 360.801 598.073 360.801 597.803V595.042C360.801 594.773 360.583 594.554 360.313 594.554Z" fill="#3F3D56"/>
<path d="M372.769 594.554H367.517C367.248 594.554 367.029 594.773 367.029 595.042V597.803C367.029 598.073 367.248 598.291 367.517 598.291H372.769C373.039 598.291 373.257 598.073 373.257 597.803V595.042C373.257 594.773 373.039 594.554 372.769 594.554Z" fill="#3F3D56"/>
<path d="M385.226 594.554H379.974C379.705 594.554 379.486 594.773 379.486 595.042V597.803C379.486 598.073 379.705 598.291 379.974 598.291H385.226C385.496 598.291 385.714 598.073 385.714 597.803V595.042C385.714 594.773 385.496 594.554 385.226 594.554Z" fill="#3F3D56"/>
<path d="M397.683 594.554H392.431C392.162 594.554 391.943 594.773 391.943 595.042V597.803C391.943 598.073 392.162 598.291 392.431 598.291H397.683C397.953 598.291 398.171 598.073 398.171 597.803V595.042C398.171 594.773 397.953 594.554 397.683 594.554Z" fill="#3F3D56"/>
<path d="M410.139 594.554H404.887C404.618 594.554 404.399 594.773 404.399 595.042V597.803C404.399 598.073 404.618 598.291 404.887 598.291H410.139C410.409 598.291 410.627 598.073 410.627 597.803V595.042C410.627 594.773 410.409 594.554 410.139 594.554Z" fill="#3F3D56"/>
<path d="M422.596 594.554H417.344C417.075 594.554 416.856 594.773 416.856 595.042V597.803C416.856 598.073 417.075 598.291 417.344 598.291H422.596C422.866 598.291 423.084 598.073 423.084 597.803V595.042C423.084 594.773 422.866 594.554 422.596 594.554Z" fill="#3F3D56"/>
<path d="M435.053 594.554H429.801C429.532 594.554 429.313 594.773 429.313 595.042V597.803C429.313 598.073 429.532 598.291 429.801 598.291H435.053C435.323 598.291 435.541 598.073 435.541 597.803V595.042C435.541 594.773 435.323 594.554 435.053 594.554Z" fill="#3F3D56"/>
<path d="M447.511 594.554H442.259C441.989 594.554 441.771 594.773 441.771 595.042V597.803C441.771 598.073 441.989 598.291 442.259 598.291H447.511C447.78 598.291 447.999 598.073 447.999 597.803V595.042C447.999 594.773 447.78 594.554 447.511 594.554Z" fill="#3F3D56"/>
<path d="M459.967 594.554H454.715C454.445 594.554 454.227 594.773 454.227 595.042V597.803C454.227 598.073 454.445 598.291 454.715 598.291H459.967C460.236 598.291 460.455 598.073 460.455 597.803V595.042C460.455 594.773 460.236 594.554 459.967 594.554Z" fill="#3F3D56"/>
<path d="M272.969 600.782H267.717C267.447 600.782 267.229 601 267.229 601.27V604.031C267.229 604.3 267.447 604.519 267.717 604.519H272.969C273.238 604.519 273.457 604.3 273.457 604.031V601.27C273.457 601 273.238 600.782 272.969 600.782Z" fill="#3F3D56"/>
<path d="M285.426 600.782H280.174C279.904 600.782 279.686 601 279.686 601.27V604.031C279.686 604.3 279.904 604.519 280.174 604.519H285.426C285.695 604.519 285.914 604.3 285.914 604.031V601.27C285.914 601 285.695 600.782 285.426 600.782Z" fill="#3F3D56"/>
<path d="M297.883 600.782H292.631C292.361 600.782 292.143 601 292.143 601.27V604.031C292.143 604.3 292.361 604.519 292.631 604.519H297.883C298.152 604.519 298.371 604.3 298.371 604.031V601.27C298.371 601 298.152 600.782 297.883 600.782Z" fill="#3F3D56"/>
<path d="M310.34 600.782H305.088C304.818 600.782 304.6 601 304.6 601.27V604.031C304.6 604.3 304.818 604.519 305.088 604.519H310.34C310.609 604.519 310.828 604.3 310.828 604.031V601.27C310.828 601 310.609 600.782 310.34 600.782Z" fill="#3F3D56"/>
<path d="M322.796 600.782H317.544C317.274 600.782 317.056 601 317.056 601.27V604.031C317.056 604.3 317.274 604.519 317.544 604.519H322.796C323.065 604.519 323.284 604.3 323.284 604.031V601.27C323.284 601 323.065 600.782 322.796 600.782Z" fill="#3F3D56"/>
<path d="M335.253 600.782H330.001C329.731 600.782 329.513 601 329.513 601.27V604.031C329.513 604.3 329.731 604.519 330.001 604.519H335.253C335.522 604.519 335.741 604.3 335.741 604.031V601.27C335.741 601 335.522 600.782 335.253 600.782Z" fill="#3F3D56"/>
<path d="M347.71 600.782H342.458C342.188 600.782 341.97 601 341.97 601.27V604.031C341.97 604.3 342.188 604.519 342.458 604.519H347.71C347.979 604.519 348.198 604.3 348.198 604.031V601.27C348.198 601 347.979 600.782 347.71 600.782Z" fill="#3F3D56"/>
<path d="M360.166 600.782H354.914C354.644 600.782 354.426 601 354.426 601.27V604.031C354.426 604.3 354.644 604.519 354.914 604.519H360.166C360.435 604.519 360.654 604.3 360.654 604.031V601.27C360.654 601 360.435 600.782 360.166 600.782Z" fill="#3F3D56"/>
<path d="M372.623 600.782H367.371C367.101 600.782 366.883 601 366.883 601.27V604.031C366.883 604.3 367.101 604.519 367.371 604.519H372.623C372.892 604.519 373.111 604.3 373.111 604.031V601.27C373.111 601 372.892 600.782 372.623 600.782Z" fill="#3F3D56"/>
<path d="M385.08 600.782H379.828C379.558 600.782 379.34 601 379.34 601.27V604.031C379.34 604.3 379.558 604.519 379.828 604.519H385.08C385.349 604.519 385.568 604.3 385.568 604.031V601.27C385.568 601 385.349 600.782 385.08 600.782Z" fill="#3F3D56"/>
<path d="M397.536 600.782H392.284C392.014 600.782 391.796 601 391.796 601.27V604.031C391.796 604.3 392.014 604.519 392.284 604.519H397.536C397.805 604.519 398.024 604.3 398.024 604.031V601.27C398.024 601 397.805 600.782 397.536 600.782Z" fill="#3F3D56"/>
<path d="M409.993 600.782H404.741C404.471 600.782 404.253 601 404.253 601.27V604.031C404.253 604.3 404.471 604.519 404.741 604.519H409.993C410.262 604.519 410.481 604.3 410.481 604.031V601.27C410.481 601 410.262 600.782 409.993 600.782Z" fill="#3F3D56"/>
<path d="M422.45 600.782H417.198C416.928 600.782 416.71 601 416.71 601.27V604.031C416.71 604.3 416.928 604.519 417.198 604.519H422.45C422.719 604.519 422.938 604.3 422.938 604.031V601.27C422.938 601 422.719 600.782 422.45 600.782Z" fill="#3F3D56"/>
<path d="M434.907 600.782H429.655C429.385 600.782 429.167 601 429.167 601.27V604.031C429.167 604.3 429.385 604.519 429.655 604.519H434.907C435.177 604.519 435.395 604.3 435.395 604.031V601.27C435.395 601 435.177 600.782 434.907 600.782Z" fill="#3F3D56"/>
<path d="M447.362 600.782H442.11C441.841 600.782 441.622 601 441.622 601.27V604.031C441.622 604.3 441.841 604.519 442.11 604.519H447.362C447.632 604.519 447.85 604.3 447.85 604.031V601.27C447.85 601 447.632 600.782 447.362 600.782Z" fill="#3F3D56"/>
<path d="M459.819 600.782H454.567C454.298 600.782 454.079 601 454.079 601.27V604.031C454.079 604.3 454.298 604.519 454.567 604.519H459.819C460.089 604.519 460.307 604.3 460.307 604.031V601.27C460.307 601 460.089 600.782 459.819 600.782Z" fill="#3F3D56"/>
<path d="M376.36 608.256H327.509C327.24 608.256 327.021 608.474 327.021 608.744V611.505C327.021 611.774 327.24 611.993 327.509 611.993H376.36C376.63 611.993 376.848 611.774 376.848 611.505V608.744C376.848 608.474 376.63 608.256 376.36 608.256Z" fill="#3F3D56"/>
<path d="M514.15 307.278H196.101C195.765 307.278 195.444 307.145 195.206 306.908C194.969 306.67 194.836 306.349 194.836 306.013C194.836 305.678 194.969 305.356 195.206 305.119C195.444 304.881 195.765 304.748 196.101 304.748H514.15C514.485 304.748 514.807 304.881 515.044 305.119C515.282 305.356 515.415 305.678 515.415 306.013C515.415 306.349 515.282 306.67 515.044 306.908C514.807 307.145 514.485 307.278 514.15 307.278Z" fill="#3F3D56"/>
<path d="M217.751 298.29C221.844 298.29 225.163 294.898 225.163 290.713C225.163 286.528 221.844 283.136 217.751 283.136C213.657 283.136 210.339 286.528 210.339 290.713C210.339 294.898 213.657 298.29 217.751 298.29Z" fill="#3F3D56"/>
<path d="M243.356 298.29C247.45 298.29 250.768 294.898 250.768 290.713C250.768 286.528 247.45 283.136 243.356 283.136C239.263 283.136 235.944 286.528 235.944 290.713C235.944 294.898 239.263 298.29 243.356 298.29Z" fill="#3F3D56"/>
<path d="M268.963 298.29C273.056 298.29 276.375 294.898 276.375 290.713C276.375 286.528 273.056 283.136 268.963 283.136C264.869 283.136 261.551 286.528 261.551 290.713C261.551 294.898 264.869 298.29 268.963 298.29Z" fill="#3F3D56"/>
<path d="M498.731 285.01H480.544C480.185 285.02 479.845 285.169 479.594 285.426C479.344 285.683 479.204 286.028 479.204 286.387C479.204 286.745 479.344 287.09 479.594 287.347C479.845 287.604 480.185 287.753 480.544 287.763H498.731C498.915 287.768 499.098 287.736 499.269 287.669C499.441 287.602 499.597 287.502 499.729 287.373C499.86 287.245 499.965 287.092 500.037 286.922C500.108 286.753 500.145 286.571 500.145 286.387C500.145 286.203 500.108 286.02 500.037 285.851C499.965 285.682 499.86 285.528 499.729 285.4C499.597 285.272 499.441 285.171 499.269 285.104C499.098 285.037 498.915 285.005 498.731 285.01Z" fill="#3F3D56"/>
<path d="M498.731 290.179H480.544C480.185 290.189 479.845 290.338 479.594 290.595C479.344 290.852 479.204 291.197 479.204 291.556C479.204 291.914 479.344 292.259 479.594 292.516C479.845 292.773 480.185 292.922 480.544 292.932H498.731C499.096 292.932 499.446 292.787 499.704 292.529C499.962 292.271 500.107 291.921 500.107 291.556C500.107 291.191 499.962 290.84 499.704 290.582C499.446 290.324 499.096 290.179 498.731 290.179Z" fill="#3F3D56"/>
<path d="M498.731 295.349H480.544C480.185 295.359 479.845 295.508 479.594 295.765C479.344 296.022 479.204 296.367 479.204 296.726C479.204 297.084 479.344 297.429 479.594 297.686C479.845 297.943 480.185 298.092 480.544 298.102H498.731C498.915 298.107 499.098 298.075 499.269 298.008C499.441 297.941 499.597 297.841 499.729 297.712C499.86 297.584 499.965 297.431 500.037 297.261C500.108 297.092 500.145 296.909 500.145 296.726C500.145 296.542 500.108 296.359 500.037 296.19C499.965 296.021 499.86 295.867 499.729 295.739C499.597 295.61 499.441 295.51 499.269 295.443C499.098 295.376 498.915 295.344 498.731 295.349Z" fill="#3F3D56"/>
<path d="M224.232 336.672H216.282C214.692 336.672 213.402 337.961 213.402 339.552V340.967C213.402 342.558 214.692 343.847 216.282 343.847H224.232C225.823 343.847 227.112 342.558 227.112 340.967V339.552C227.112 337.961 225.823 336.672 224.232 336.672Z" fill="#E6E6E6"/>
<path d="M298.973 336.672H291.023C289.432 336.672 288.143 337.961 288.143 339.552V340.967C288.143 342.558 289.432 343.847 291.023 343.847H298.973C300.563 343.847 301.853 342.558 301.853 340.967V339.552C301.853 337.961 300.563 336.672 298.973 336.672Z" fill="#E6E6E6"/>
<path d="M320.148 336.672H312.198C310.608 336.672 309.318 337.961 309.318 339.552V340.967C309.318 342.558 310.608 343.847 312.198 343.847H320.148C321.739 343.847 323.028 342.558 323.028 340.967V339.552C323.028 337.961 321.739 336.672 320.148 336.672Z" fill="#E6E6E6"/>
<path d="M278.643 336.073H236.612C235.022 336.073 233.732 337.362 233.732 338.953V340.368C233.732 341.959 235.022 343.248 236.612 343.248H278.643C280.234 343.248 281.523 341.959 281.523 340.368V338.953C281.523 337.362 280.234 336.073 278.643 336.073Z" fill="#E6E6E6"/>
<path d="M378.297 336.073H336.266C334.675 336.073 333.386 337.362 333.386 338.953V340.368C333.386 341.959 334.675 343.248 336.266 343.248H378.297C379.887 343.248 381.177 341.959 381.177 340.368V338.953C381.177 337.362 379.887 336.073 378.297 336.073Z" fill="#E6E6E6"/>
<path d="M244.162 352.866H236.212C234.621 352.866 233.332 354.156 233.332 355.746V357.161C233.332 358.752 234.621 360.041 236.212 360.041H244.162C245.753 360.041 247.042 358.752 247.042 357.161V355.746C247.042 354.156 245.753 352.866 244.162 352.866Z" fill="#E6E6E6"/>
<path d="M318.903 352.866H310.953C309.363 352.866 308.073 354.156 308.073 355.746V357.161C308.073 358.752 309.363 360.041 310.953 360.041H318.903C320.494 360.041 321.783 358.752 321.783 357.161V355.746C321.783 354.156 320.494 352.866 318.903 352.866Z" fill="#E6E6E6"/>
<path d="M340.08 352.866H332.13C330.539 352.866 329.25 354.156 329.25 355.746V357.161C329.25 358.752 330.539 360.041 332.13 360.041H340.08C341.671 360.041 342.96 358.752 342.96 357.161V355.746C342.96 354.156 341.671 352.866 340.08 352.866Z" fill="#E6E6E6"/>
<path d="M298.573 352.267H256.542C254.952 352.267 253.662 353.557 253.662 355.147V356.562C253.662 358.153 254.952 359.442 256.542 359.442H298.573C300.164 359.442 301.453 358.153 301.453 356.562V355.147C301.453 353.557 300.164 352.267 298.573 352.267Z" fill="#E6E6E6"/>
<path d="M398.227 352.267H356.196C354.606 352.267 353.316 353.557 353.316 355.147V356.562C353.316 358.153 354.606 359.442 356.196 359.442H398.227C399.818 359.442 401.107 358.153 401.107 356.562V355.147C401.107 353.557 399.818 352.267 398.227 352.267Z" fill="#E6E6E6"/>
<path d="M264.094 369.059H256.144C254.553 369.059 253.264 370.349 253.264 371.939V373.354C253.264 374.945 254.553 376.234 256.144 376.234H264.094C265.684 376.234 266.974 374.945 266.974 373.354V371.939C266.974 370.349 265.684 369.059 264.094 369.059Z" fill="#E6E6E6"/>
<path d="M338.834 369.059H330.884C329.293 369.059 328.004 370.349 328.004 371.939V373.354C328.004 374.945 329.293 376.234 330.884 376.234H338.834C340.424 376.234 341.714 374.945 341.714 373.354V371.939C341.714 370.349 340.424 369.059 338.834 369.059Z" fill="#E6E6E6"/>
<path d="M360.011 369.059H352.061C350.47 369.059 349.181 370.349 349.181 371.939V373.354C349.181 374.945 350.47 376.234 352.061 376.234H360.011C361.601 376.234 362.891 374.945 362.891 373.354V371.939C362.891 370.349 361.601 369.059 360.011 369.059Z" fill="#E6E6E6"/>
<path d="M318.505 368.461H276.474C274.883 368.461 273.594 369.75 273.594 371.341V372.756C273.594 374.347 274.883 375.636 276.474 375.636H318.505C320.095 375.636 321.385 374.347 321.385 372.756V371.341C321.385 369.75 320.095 368.461 318.505 368.461Z" fill="#E6E6E6"/>
<path d="M418.158 368.461H376.127C374.536 368.461 373.247 369.75 373.247 371.341V372.756C373.247 374.347 374.536 375.636 376.127 375.636H418.158C419.749 375.636 421.038 374.347 421.038 372.756V371.341C421.038 369.75 419.749 368.461 418.158 368.461Z" fill="#E6E6E6"/>
<path d="M284.024 385.253H276.074C274.484 385.253 273.194 386.542 273.194 388.133V389.548C273.194 391.139 274.484 392.428 276.074 392.428H284.024C285.615 392.428 286.904 391.139 286.904 389.548V388.133C286.904 386.542 285.615 385.253 284.024 385.253Z" fill="#E6E6E6"/>
<path d="M358.765 385.253H350.815C349.224 385.253 347.935 386.542 347.935 388.133V389.548C347.935 391.139 349.224 392.428 350.815 392.428H358.765C360.355 392.428 361.645 391.139 361.645 389.548V388.133C361.645 386.542 360.355 385.253 358.765 385.253Z" fill="#E6E6E6"/>
<path d="M379.941 385.253H371.991C370.401 385.253 369.111 386.542 369.111 388.133V389.548C369.111 391.139 370.401 392.428 371.991 392.428H379.941C381.532 392.428 382.821 391.139 382.821 389.548V388.133C382.821 386.542 381.532 385.253 379.941 385.253Z" fill="#E6E6E6"/>
<path d="M338.435 384.655H296.404C294.814 384.655 293.524 385.944 293.524 387.535V388.95C293.524 390.541 294.814 391.83 296.404 391.83H338.435C340.026 391.83 341.315 390.541 341.315 388.95V387.535C341.315 385.944 340.026 384.655 338.435 384.655Z" fill="#E6E6E6"/>
<path d="M298.973 449.646H291.023C289.432 449.646 288.143 450.935 288.143 452.526V453.941C288.143 455.532 289.432 456.821 291.023 456.821H298.973C300.563 456.821 301.853 455.532 301.853 453.941V452.526C301.853 450.935 300.563 449.646 298.973 449.646Z" fill="#E6E6E6"/>
<path d="M320.148 449.646H312.198C310.608 449.646 309.318 450.935 309.318 452.526V453.941C309.318 455.532 310.608 456.821 312.198 456.821H320.148C321.739 456.821 323.028 455.532 323.028 453.941V452.526C323.028 450.935 321.739 449.646 320.148 449.646Z" fill="#E6E6E6"/>
<path d="M378.297 450.244H336.266C334.675 450.244 333.386 451.533 333.386 453.124V454.539C333.386 456.13 334.675 457.419 336.266 457.419H378.297C379.887 457.419 381.177 456.13 381.177 454.539V453.124C381.177 451.533 379.887 450.244 378.297 450.244Z" fill="#E6E6E6"/>
<path d="M224.232 449.646H216.282C214.692 449.646 213.402 450.935 213.402 452.526V453.941C213.402 455.532 214.692 456.821 216.282 456.821H224.232C225.823 456.821 227.112 455.532 227.112 453.941V452.526C227.112 450.935 225.823 449.646 224.232 449.646Z" fill="#E6E6E6"/>
<path d="M278.643 450.244H236.612C235.022 450.244 233.732 451.533 233.732 453.124V454.539C233.732 456.13 235.022 457.419 236.612 457.419H278.643C280.234 457.419 281.523 456.13 281.523 454.539V453.124C281.523 451.533 280.234 450.244 278.643 450.244Z" fill="#E6E6E6"/>
<path d="M244.162 433.452H236.212C234.621 433.452 233.332 434.741 233.332 436.332V437.747C233.332 439.338 234.621 440.627 236.212 440.627H244.162C245.753 440.627 247.042 439.338 247.042 437.747V436.332C247.042 434.741 245.753 433.452 244.162 433.452Z" fill="#E6E6E6"/>
<path d="M318.903 433.452H310.953C309.363 433.452 308.073 434.741 308.073 436.332V437.747C308.073 439.338 309.363 440.627 310.953 440.627H318.903C320.494 440.627 321.783 439.338 321.783 437.747V436.332C321.783 434.741 320.494 433.452 318.903 433.452Z" fill="#E6E6E6"/>
<path d="M340.08 433.452H332.13C330.539 433.452 329.25 434.741 329.25 436.332V437.747C329.25 439.338 330.539 440.627 332.13 440.627H340.08C341.671 440.627 342.96 439.338 342.96 437.747V436.332C342.96 434.741 341.671 433.452 340.08 433.452Z" fill="#E6E6E6"/>
<path d="M298.573 434.05H256.542C254.952 434.05 253.662 435.339 253.662 436.93V438.345C253.662 439.936 254.952 441.225 256.542 441.225H298.573C300.164 441.225 301.453 439.936 301.453 438.345V436.93C301.453 435.339 300.164 434.05 298.573 434.05Z" fill="#E6E6E6"/>
<path d="M264.094 417.258H256.144C254.553 417.258 253.264 418.547 253.264 420.138V421.553C253.264 423.144 254.553 424.433 256.144 424.433H264.094C265.684 424.433 266.974 423.144 266.974 421.553V420.138C266.974 418.547 265.684 417.258 264.094 417.258Z" fill="#E6E6E6"/>
<path d="M338.834 417.258H330.884C329.293 417.258 328.004 418.547 328.004 420.138V421.553C328.004 423.144 329.293 424.433 330.884 424.433H338.834C340.424 424.433 341.714 423.144 341.714 421.553V420.138C341.714 418.547 340.424 417.258 338.834 417.258Z" fill="#E6E6E6"/>
<path d="M360.011 417.258H352.061C350.47 417.258 349.181 418.547 349.181 420.138V421.553C349.181 423.144 350.47 424.433 352.061 424.433H360.011C361.601 424.433 362.891 423.144 362.891 421.553V420.138C362.891 418.547 361.601 417.258 360.011 417.258Z" fill="#E6E6E6"/>
<path d="M318.505 417.856H276.474C274.883 417.856 273.594 419.145 273.594 420.736V422.151C273.594 423.742 274.883 425.031 276.474 425.031H318.505C320.095 425.031 321.385 423.742 321.385 422.151V420.736C321.385 419.145 320.095 417.856 318.505 417.856Z" fill="#E6E6E6"/>
<path d="M284.024 401.065H276.074C274.484 401.065 273.194 402.354 273.194 403.945V405.36C273.194 406.951 274.484 408.24 276.074 408.24H284.024C285.615 408.24 286.904 406.951 286.904 405.36V403.945C286.904 402.354 285.615 401.065 284.024 401.065Z" fill="#E6E6E6"/>
<path d="M358.765 401.065H350.815C349.224 401.065 347.935 402.354 347.935 403.945V405.36C347.935 406.951 349.224 408.24 350.815 408.24H358.765C360.355 408.24 361.645 406.951 361.645 405.36V403.945C361.645 402.354 360.355 401.065 358.765 401.065Z" fill="#E6E6E6"/>
<path d="M379.941 401.065H371.991C370.401 401.065 369.111 402.354 369.111 403.945V405.36C369.111 406.951 370.401 408.24 371.991 408.24H379.941C381.532 408.24 382.821 406.951 382.821 405.36V403.945C382.821 402.354 381.532 401.065 379.941 401.065Z" fill="#E6E6E6"/>
<path d="M338.435 401.663H296.404C294.814 401.663 293.524 402.953 293.524 404.543V405.958C293.524 407.549 294.814 408.838 296.404 408.838H338.435C340.026 408.838 341.315 407.549 341.315 405.958V404.543C341.315 402.953 340.026 401.663 338.435 401.663Z" fill="#E6E6E6"/>
<path d="M332.627 416.948C332.627 416.948 353.24 445.884 345.878 453.719C338.516 461.554 401.108 461.749 401.108 461.749C401.108 461.749 391.708 419.655 394.473 409.968L332.627 416.948Z" fill="#B17A7A"/>
<path d="M517.964 683.587C517.204 683.973 516.432 684.359 515.672 684.733C495.99 694.574 480.245 700.167 458.708 706.296C456.889 685.996 455.133 650.303 453.426 628.18C452.978 622.438 452.526 617.617 452.093 614.216C451.981 612.408 451.611 610.625 450.993 608.922L451.068 614.216L451.255 628.18L452.339 708.04C425.547 715.129 398.026 719.095 370.324 719.861C368.879 719.898 367.459 719.923 366.089 719.948C365.603 719.96 365.13 719.973 364.656 719.973C363.099 719.986 361.556 719.998 359.997 719.998C330.803 720.02 301.715 716.494 273.373 709.498C273.983 689.405 274.594 654.115 275.179 628.18C275.304 623.11 275.416 618.389 275.54 614.216C275.777 605.297 276.026 598.869 276.263 596.716C276.053 597.098 275.89 597.503 275.777 597.924C274.623 603.295 273.837 608.739 273.423 614.217C272.987 618.39 272.551 623.111 272.115 628.181C269.798 655.125 267.382 691.76 264.89 707.294C250.061 703.246 235.51 698.24 221.329 692.309C213.857 689.194 206.517 685.834 199.309 682.23C200.679 673.261 202.109 663.209 203.582 652.782C204.728 644.698 205.911 636.389 207.12 628.182C208.988 615.501 210.907 603.069 212.85 592.12C215.69 576.126 218.605 563.27 221.495 557.366C224.236 551.76 226.976 546.23 229.629 540.936C230.551 539.08 231.473 537.249 232.37 535.468C232.582 535.044 232.794 534.633 233.005 534.222C234.911 530.473 236.755 526.885 238.511 523.522C240.018 520.644 241.451 517.929 242.811 515.422C246.1 509.343 248.89 504.497 250.958 501.433C259.603 488.32 272.472 478.558 287.431 473.767L287.805 473.667L288.067 473.779L313.541 465.956L317.266 464.81L319.766 464.038L328.585 457.324L333.385 453.674L337.885 450.248L346.679 443.559L401.127 446.91L411.727 472.434L435.469 481.116L435.88 480.929L436.241 480.78L436.615 480.88C451.57 485.675 464.439 495.436 473.088 508.546C474.259 510.302 475.679 512.619 477.288 515.422C478.658 517.801 480.153 520.517 481.772 523.522C484.072 527.795 486.593 532.615 489.259 537.835C489.844 538.981 490.442 540.152 491.04 541.335C492.148 543.527 493.274 545.765 494.416 548.049C497.069 553.343 499.81 558.874 502.55 564.492C504.929 569.363 507.333 579.378 509.7 592.121C511.656 602.709 513.6 615.191 515.48 628.183C517.946 645.025 515.318 665.192 517.548 680.688C517.678 681.669 517.827 682.628 517.964 683.587Z" fill="#3F3D56"/>
<path d="M360.766 423.186C395.74 423.186 424.092 394.834 424.092 359.86C424.092 324.886 395.74 296.534 360.766 296.534C325.792 296.534 297.44 324.886 297.44 359.86C297.44 394.834 325.792 423.186 360.766 423.186Z" fill="#B17A7A"/>
<path d="M465.198 275.941C463.946 273.018 462.281 270.29 460.253 267.841C450.636 256.094 433.147 250.925 415.197 264.826C411.742 264.055 408.14 264.263 404.797 265.426C403.218 265.998 401.738 266.813 400.412 267.843C397.693 269.964 395.572 272.755 394.258 275.943C393.555 277.626 393.093 279.4 392.888 281.212C388.45 278.907 383.754 277.138 378.899 275.943C366.985 272.98 354.526 272.98 342.613 275.943C338.795 276.909 335.118 278.366 331.676 280.278C325.846 283.641 322.495 287.889 321.897 292.61C313.489 293.083 304.744 297.51 298.229 304.755C297.494 305.565 296.784 306.412 296.124 307.284C290.645 314.452 287.7 323.236 287.752 332.258V333.84H289.334C293.668 333.836 297.962 334.673 301.978 336.306C304.579 337.351 307.043 338.71 309.315 340.354C310.801 341.408 312.205 342.574 313.515 343.842C316.549 346.779 319.12 350.161 321.139 353.87C326.314 363.243 328.108 374.111 326.221 384.651C325.788 387.091 325.155 389.49 324.328 391.826C323.15 395.157 321.6 398.344 319.706 401.326C319.631 401.438 319.569 401.55 319.494 401.662C318.659 402.995 317.862 404.353 317.115 405.723C316.554 406.744 316.031 407.791 315.545 408.837C314.125 411.749 312.926 414.764 311.958 417.856C310.224 423.324 309.202 428.993 308.918 434.722C308.831 436.242 308.806 437.761 308.856 439.281C308.93 443.198 309.359 447.101 310.139 450.941C310.251 451.464 310.363 451.975 310.475 452.498L311.384 456.472L313.539 465.952L315.034 472.479L316.417 478.533L318.46 475.606C319.16 474.606 320.914 471.545 323.268 467.206C324.825 464.378 326.631 461.006 328.587 457.315C331.315 452.145 334.305 446.378 337.232 440.623C338.415 438.294 339.586 435.977 340.72 433.71C342.863 429.41 344.881 425.264 346.612 421.577C348.206 418.177 349.564 415.162 350.573 412.745C350.884 414.327 351.146 415.934 351.345 417.553C351.569 419.197 351.731 420.866 351.818 422.536C351.843 422.785 351.855 423.047 351.868 423.296L351.918 424.318L351.93 424.618L353.25 424.792C360.865 425.607 368.543 425.666 376.17 424.966H376.182C386.286 424.205 396.198 421.803 405.53 417.853C410.83 415.554 415.779 412.517 420.23 408.834C422.308 407.112 424.247 405.23 426.03 403.204C426.478 402.693 426.914 402.183 427.338 401.659C429.803 398.629 431.914 395.327 433.629 391.818C434.777 389.502 435.751 387.104 436.544 384.643C441.327 370.156 441.053 352.081 435.722 330.606C437.162 330.328 438.541 329.797 439.795 329.036C443.706 326.682 446.422 322.01 447.269 316.305L448.614 316.666C453.383 314.445 457.631 311.245 461.083 307.274C461.766 306.465 462.406 305.621 463.001 304.745C469.097 295.783 469.147 285.022 465.198 275.941Z" fill="#090814"/>
<path opacity="0.2" d="M257.009 592.063L267.589 551.211L276.935 586.458L257.009 592.063Z" fill="black"/>
<path d="M538.667 565.447C534.88 617.616 538.804 640.586 517.902 683.599C498.884 692.909 479.074 700.505 458.708 706.299C456.59 706.899 454.468 707.48 452.343 708.043C425.552 715.132 398.03 719.099 370.328 719.865C368.883 719.902 367.463 719.927 366.093 719.952C365.607 719.965 365.134 719.977 364.66 719.977C363.103 719.989 361.56 720.002 360.001 720.002C330.807 720.024 301.72 716.498 273.377 709.502C270.537 708.804 267.709 708.069 264.894 707.297C250.065 703.249 235.514 698.243 221.333 692.312C213.859 689.198 206.517 685.839 199.309 682.234C197.677 681.412 196.045 680.59 194.438 679.743C186.179 665.219 181.483 647.555 181.383 626.329C187.102 589.75 526.036 533.907 538.667 565.447Z" fill="#090814"/>
<path opacity="0.2" d="M538.657 574.381C538.85 571.151 539.067 567.815 539.319 564.341C526.688 532.801 187.753 588.641 182.035 625.217C182.051 628.57 182.194 631.824 182.435 635.001C196.282 598.904 518.275 545.829 538.657 574.381Z" fill="black"/>
<path d="M203.165 426.208C203.248 425.079 203.087 423.945 202.695 422.882C202.302 421.82 201.687 420.854 200.89 420.05C200.093 419.245 199.133 418.621 198.074 418.219C197.016 417.817 195.883 417.646 194.753 417.718C194.332 417.734 193.913 417.787 193.501 417.875L143.971 429.064C142.864 429.332 141.826 429.83 140.923 430.524C140.02 431.218 139.272 432.093 138.728 433.094C138.002 433.121 137.28 433.226 136.576 433.407C135.017 433.738 133.539 434.376 132.228 435.284C130.917 436.191 129.8 437.35 128.941 438.693C128.081 440.036 127.497 441.536 127.223 443.106C126.948 444.676 126.988 446.286 127.341 447.84C127.693 449.395 128.351 450.864 129.276 452.163C130.201 453.461 131.375 454.563 132.73 455.403C134.084 456.244 135.592 456.808 137.166 457.061C138.74 457.315 140.348 457.253 141.898 456.879C143.67 456.468 145.327 455.666 146.749 454.532L163.533 501.794C164.371 503.275 165.667 504.445 167.225 505.129C168.783 505.813 170.521 505.975 172.179 505.589L204.379 498.312C206.024 497.927 207.504 497.03 208.608 495.751C209.711 494.472 210.381 492.876 210.521 491.192L203.165 426.208ZM141.154 453.516C140.052 453.768 138.911 453.8 137.797 453.611C136.682 453.422 135.616 453.015 134.659 452.414C132.725 451.199 131.353 449.267 130.845 447.041C130.593 445.939 130.561 444.798 130.75 443.684C130.939 442.569 131.346 441.503 131.947 440.546C132.549 439.588 133.333 438.759 134.254 438.104C135.176 437.45 136.218 436.984 137.32 436.732C137.476 436.693 137.633 436.732 137.79 436.693C137.778 438.119 138.142 439.522 138.846 440.762L144.988 451.479C143.919 452.495 142.594 453.198 141.154 453.516Z" fill="#090814"/>
<path d="M194.753 417.718C195.223 423.978 184.503 431.177 170.144 434.033C156.959 436.733 145.144 434.854 141.818 429.925C142.487 429.528 143.213 429.238 143.97 429.064L193.5 417.875C193.912 417.787 194.332 417.734 194.753 417.718Z" fill="#3F3D56"/>
<path d="M160.498 576.628L188.318 562.718L165.134 500.118L159.024 468.55C158.23 464.449 156.374 460.628 153.64 457.469C150.907 454.31 147.393 451.923 143.448 450.548C139.504 449.173 135.268 448.857 131.163 449.631C127.058 450.406 123.229 452.245 120.057 454.963C115.358 458.992 112.407 464.69 111.829 470.853C111.251 477.016 113.089 483.163 116.957 487.996L139.637 516.346L160.498 576.628Z" fill="#B17A7A"/>
<path d="M188.319 551.125L151.226 569.672L179.376 657.872C181.397 664.206 185.021 669.91 189.896 674.432C194.77 678.953 200.731 682.138 207.199 683.678C215.173 685.578 223.546 684.888 231.103 681.709C238.659 678.53 245.007 673.027 249.226 665.998L323.87 538.049C329.16 529.233 330.792 518.697 328.419 508.693C326.046 498.689 319.856 490.009 311.17 484.508C306.498 481.549 301.256 479.607 295.784 478.809C290.312 478.01 284.733 478.372 279.411 479.872C274.089 481.372 269.141 483.976 264.892 487.514C260.642 491.052 257.185 495.445 254.746 500.408L209.184 597.491L188.319 551.125Z" fill="#3F3D56"/>
<path d="M176.846 471.413C176.778 471.413 176.71 471.401 176.646 471.379L168.546 468.591C168.448 468.558 168.36 468.5 168.29 468.424C168.22 468.348 168.169 468.256 168.144 468.155C168.119 468.055 168.119 467.95 168.144 467.85C168.169 467.749 168.22 467.657 168.29 467.581L174.313 461.023C174.367 460.959 174.433 460.906 174.508 460.869C174.583 460.831 174.665 460.809 174.749 460.803C174.833 460.798 174.917 460.81 174.996 460.838C175.075 460.866 175.148 460.909 175.21 460.966C175.272 461.023 175.322 461.092 175.356 461.168C175.391 461.245 175.41 461.327 175.411 461.411C175.413 461.495 175.398 461.579 175.367 461.657C175.336 461.735 175.289 461.806 175.23 461.865L169.85 467.722L177.05 470.201C177.189 470.249 177.306 470.345 177.382 470.471C177.457 470.597 177.485 470.746 177.461 470.891C177.437 471.037 177.363 471.169 177.251 471.264C177.139 471.36 176.997 471.412 176.85 471.413H176.846Z" fill="#FFB646"/>
<path d="M187.945 469.141C187.822 469.141 187.7 469.104 187.598 469.034C187.495 468.965 187.415 468.867 187.369 468.752C187.322 468.637 187.311 468.511 187.337 468.39C187.362 468.268 187.424 468.157 187.512 468.071L192.986 462.778L185.632 459.748C185.48 459.685 185.358 459.564 185.295 459.412C185.231 459.26 185.231 459.088 185.294 458.936C185.357 458.783 185.478 458.662 185.63 458.598C185.782 458.535 185.954 458.534 186.106 458.597L194.339 461.99C194.435 462.029 194.52 462.091 194.586 462.171C194.652 462.251 194.697 462.346 194.717 462.447C194.737 462.549 194.731 462.654 194.7 462.753C194.669 462.851 194.614 462.941 194.539 463.013L188.381 468.966C188.265 469.078 188.11 469.141 187.948 469.141H187.945Z" fill="#FFB646"/>
<path d="M178.545 475.224C178.482 475.224 178.421 475.215 178.362 475.196C178.283 475.172 178.211 475.133 178.148 475.081C178.085 475.029 178.032 474.965 177.994 474.893C177.956 474.82 177.932 474.741 177.925 474.66C177.917 474.578 177.925 474.496 177.95 474.418L183.698 455.733C183.722 455.655 183.761 455.582 183.813 455.519C183.865 455.456 183.929 455.404 184.002 455.366C184.074 455.328 184.153 455.304 184.235 455.296C184.316 455.289 184.398 455.297 184.476 455.321C184.555 455.345 184.627 455.384 184.69 455.437C184.753 455.489 184.806 455.553 184.844 455.625C184.882 455.698 184.906 455.777 184.913 455.858C184.921 455.94 184.913 456.022 184.889 456.1L179.14 474.785C179.101 474.912 179.022 475.024 178.915 475.103C178.808 475.182 178.678 475.224 178.545 475.224Z" fill="#FFB646"/>
</g>
<defs>
<clipPath id="clip0_1887_539">
<rect width="720" height="719.998" fill="white"/>
</clipPath>
</defs>
</svg>
